<?xml version="1.0" encoding="UTF-8" standalone="no"?>
<!-- Created with Inkscape (http://www.inkscape.org/) -->

<svg
   width="224.13528mm"
   height="274.52682mm"
   viewBox="0 0 224.13528 274.52682"
   version="1.1"
   id="svg1"
   xml:space="preserve"
   inkscape:version="1.3.2 (091e20ef0f, 2023-11-25)"
   sodipodi:docname="hclipboard_logo.svg"
   xmlns:inkscape="http://www.inkscape.org/namespaces/inkscape"
   xmlns:sodipodi="http://sodipodi.sourceforge.net/DTD/sodipodi-0.dtd"
   xmlns="http://www.w3.org/2000/svg"
   xmlns:svg="http://www.w3.org/2000/svg"><sodipodi:namedview
     id="namedview1"
     pagecolor="#505050"
     bordercolor="#ffffff"
     borderopacity="1"
     inkscape:showpageshadow="0"
     inkscape:pageopacity="0"
     inkscape:pagecheckerboard="1"
     inkscape:deskcolor="#505050"
     inkscape:document-units="mm"
     inkscape:zoom="0.84096521"
     inkscape:cx="469.69839"
     inkscape:cy="536.28854"
     inkscape:window-width="2560"
     inkscape:window-height="1360"
     inkscape:window-x="0"
     inkscape:window-y="0"
     inkscape:window-maximized="1"
     inkscape:current-layer="layer1" /><defs
     id="defs1" /><g
     inkscape:label="Layer 1"
     inkscape:groupmode="layer"
     id="layer1"
     transform="translate(7.067645,-11.236589)"><path
       style="fill:#fd511b;fill-opacity:1;stroke-width:0.358525"
       d="m 13.820975,246.58084 c 0.34863,-4.32829 -0.73343,-12.48248 0.77078,-14.34021 5.5598,12.18471 14.79338,22.47806 26.08247,29.60107 -7.01091,1.58986 -16.03315,1.24866 -23.5773,0.0619 -4.93421,-3.01121 -2.68141,-10.53921 -3.27595,-15.32273 z M 121.17677,262.2977 c 4.87905,-3.77827 12.36474,-8.2506 16.9116,-13.93352 12.20332,-13.39759 18.69189,-31.47985 18.65453,-49.58601 1.45446,-23.71884 -7.899,-47.96324 -25.92819,-63.63524 -15.37045,-14.22064 -37.038025,-20.35751 -57.819225,-20.43444 -13.13981,0.0902 -26.50672,2.75179 -38.54827,7.62883 -6.78714,3.31518 -14.50294,6.62985 -19.96607,11.95435 -1.31879,-15.86598 -0.43697,-31.91063 -0.68382,-47.856171 -1.4654,-4.69062 1.77864,-6.4195 4.9481,-6.47525 H 194.13972 V 262.75659 c -24.31802,-0.13565 -48.66303,0.34354 -72.96295,-0.45889 z M 69.093145,250.7698 c -16.68744,-3.07198 -32.88696,-15.49305 -35.98334,-32.86715 -1.28383,-10.12331 0.31986,-20.5985 6.43466,-28.9742 8.70354,-11.95864 25.05145,-16.80298 39.14568,-13.35402 9.67787,1.85244 15.31844,10.9329 15.00889,20.55226 -0.33054,8.40831 -6.6764,16.13505 -15.5413,16.20666 -8.0589,2.23394 -17.08767,-8.48915 -12.30497,-15.47808 3.80787,-7.53309 -13.67177,-0.21736 -13.67904,5.13223 -5.06523,10.04103 -0.52467,22.80474 9.01883,28.29674 8.84607,6.20802 20.66208,5.44976 30.66992,2.85435 8.483685,-2.81839 16.089945,-9.04674 20.501685,-16.91687 4.61078,-12.76561 6.38551,-27.54877 0.0358,-40.07348 -4.42291,-8.47815 -11.92324,-15.29264 -20.133065,-19.85332 -7.51083,-4.03075 -16.39734,-5.73197 -25.05756,-5.17355 -9.77081,-0.27272 -19.20796,3.20719 -27.71439,7.41447 -8.84133,5.04137 -16.2008,12.5661 -21.49641,21.36879 -1.82477,2.96659 -4.62449,13.01382 -4.10336,3.57208 0.15749,-9.75777 -1.21186,-20.04363 2.52284,-29.30422 6.97701,-5.51279 15.28897,-10.57604 23.92449,-13.99428 12.54353,-4.88963 26.21505,-5.86635 39.51897,-4.38828 23.782485,2.09571 44.947385,19.98366 51.871745,42.76099 3.5161,11.23821 3.14393,23.6014 0.59253,35.0142 -3.10643,11.33478 -9.52954,21.6386 -19.17965,28.64326 -9.21764,6.38686 -20.845515,9.64555 -32.316435,9.0367 -3.91013,-0.0255 -7.8563,0.0907 -11.73654,-0.47528 z"
       id="path1"
       sodipodi:nodetypes="cccccccccccccccccccccccccccccccccccccccccc" /><path
       style="fill:#1d1d1d;fill-opacity:1;stroke-width:0.32733"
       d="m 15.837015,285.69399 c -11.51625,-1.00252 -20.89194,-9.79966 -22.59834,-21.20388 -0.3053,-2.04038 -0.30632,47.826 -0.30632,-67.39726 0,-115.223271 9.9e-4,-115.613211 0.30632,-117.653591 1.49803,-10.0116 9.0077,-18.21989 18.83097,-20.58278 2.78959,-0.67101 1.64064,-0.62804 17.59663,-0.65805 14.26229,-0.0268 14.26229,-0.0268 14.56896,-0.57521 3.55452,-6.35606 10.1663,-10.98169 17.45976,-12.21492 2.11195,-0.3571 3.44718,-0.39592 13.61734,-0.39592 5.27621,0 9.59312,-0.0203 9.59312,-0.045 0,-0.0248 -0.17539,-0.39425 -0.38975,-0.82107 -7.5219,-14.97699 3.63909,-32.90972 20.482385,-32.90972 16.8428,0 28.00405,17.93316 20.48237,32.90972 -0.21436,0.42682 -0.38974,0.7963 -0.38974,0.82107 0,0.0248 4.3169,0.045 9.59311,0.045 11.69867,0 12.82452,0.0616 15.8448,0.86752 6.37147,1.70006 12.07466,6.09691 15.23231,11.74332 0.30667,0.54839 0.30667,0.54839 14.56896,0.57521 14.14089,0.0266 14.272,0.0284 15.4024,0.2139 11.85826,1.94579 20.43502,11.30938 21.24321,23.19209 0.12284,1.80607 0.12284,178.914461 0,180.720531 -0.80748,11.87221 -9.3685,21.23054 -21.21414,23.18988 -1.04918,0.17354 -177.965245,0.3497 -179.924355,0.17916 z M 192.98998,197.09285 V 82.079829 h -11.95167 -11.95164 v 5.5861 5.5861 H 104.99809 40.909505 v -5.5861 -5.5861 h -11.95165 -11.95166 v 115.013021 64.75669 h 87.991895 87.99189 z M 105.89919,44.058439 c 12.52932,-1.21832 11.6831,-20.00476 -0.9011,-20.00476 -12.492005,0 -13.442345,18.79661 -1.01121,20.00046 0.99746,0.0966 0.96387,0.0965 1.91231,0.004 z"
       id="path2"
       sodipodi:nodetypes="ssscsscssscsssssssssssscccccccccccccccccsssss" /></g></svg>
